<?xml version="1.0" encoding="utf-8"?>
<!-- Generator: Adobe Illustrator 16.0.0, SVG Export Plug-In . SVG Version: 6.00 Build 0)  -->
<!DOCTYPE svg PUBLIC "-//W3C//DTD SVG 1.1//EN" "http://www.w3.org/Graphics/SVG/1.1/DTD/svg11.dtd">
<svg version="1.1" id="Layer_1" xmlns="http://www.w3.org/2000/svg" xmlns:xlink="http://www.w3.org/1999/xlink" x="0px" y="0px"
	 width="14.17px" height="14.17px" viewBox="0 0 14.17 14.17" enable-background="new 0 0 14.17 14.17" xml:space="preserve">
<symbol  id="AFrica" viewBox="-8.698 -8.771 17.396 17.545">
	<g>
		<path fill="#C31622" d="M4.346,4.373c0-0.004,0-0.014,0-0.023c0,0.004,0,0.01,0,0.02V4.373z"/>
		<path fill="#991210" d="M0.002,8.773c-2.401,0-4.352-1.945-4.352-4.352c0-0.02,0-0.027,0-0.049c0-0.004,0-0.014,0-0.023
			c0.011-0.115,0.09-0.211,0.205-0.232c0.025,0,0.049-0.008,0.074-0.008C-1.9,3.973-0.158,2.244-0.01,0.074c0,0,0.008,0,0.012,0
			c0,0,0.007,0,0.013,0c0.142,2.17,1.882,3.898,4.055,4.035c0.011,0,0.017-0.002,0.021-0.002c0.02,0,0.044,0.002,0.059,0.01
			C4.258,4.139,4.344,4.234,4.346,4.35c0,0.01,0,0.02,0,0.023c0,0.021,0,0.029,0,0.049C4.346,6.828,2.404,8.773,0.002,8.773z"/>
	</g>
	<g>
		<path fill="#C31622" d="M-4.374-4.373c0,0.01,0.003,0.018,0.003,0.025c-0.003-0.006-0.003-0.008-0.003-0.016
			C-4.374-4.367-4.374-4.367-4.374-4.373z"/>
		<path fill="#991210" d="M-0.021-8.771c2.397,0,4.342,1.951,4.342,4.354c0,0.01,0,0.031,0,0.045c0,0.01,0,0.018,0,0.025
			C4.318-4.229,4.232-4.139,4.125-4.109c-0.026,0-0.051,0-0.08,0.004C1.877-3.971,0.137-2.236-0.01-0.074c-0.008,0-0.011,0-0.011,0
			c-0.006,0-0.012,0-0.015,0c-0.15-2.162-1.887-3.896-4.061-4.031c-0.006,0-0.014,0-0.021,0c-0.018,0-0.04-0.004-0.055-0.004
			C-4.28-4.139-4.359-4.229-4.371-4.348c0-0.008-0.003-0.016-0.003-0.025c0-0.014,0-0.035,0-0.045
			C-4.374-6.82-2.424-8.771-0.021-8.771z"/>
	</g>
	<g>
		<path fill="#C31622" d="M4.303-4.434c-0.011,0-0.021,0-0.031,0c0.008,0,0.01,0,0.016,0C4.292-4.434,4.297-4.434,4.303-4.434z"/>
		<path fill="#991210" d="M8.697-0.084c0,2.402-1.945,4.35-4.352,4.35c-0.012,0-0.027,0-0.043,0c-0.011,0-0.021,0-0.031,0
			c-0.113-0.004-0.207-0.09-0.234-0.197c0-0.027,0-0.059-0.003-0.082C3.899,1.818,2.166,0.078,0.002-0.074c0,0-0.004,0-0.004-0.01
			l0.004-0.012c2.164-0.148,3.897-1.883,4.032-4.057c0-0.006-0.006-0.018-0.006-0.023c0-0.02,0.009-0.039,0.009-0.053
			c0.027-0.117,0.121-0.199,0.234-0.205c0.01,0,0.021,0,0.031,0c0.016,0,0.031,0,0.043,0C6.752-4.434,8.697-2.488,8.697-0.084z"/>
	</g>
	<g>
		<path fill="#C31622" d="M-4.298,4.434c0.009,0,0.012,0,0.023,0c-0.006,0-0.012,0.008-0.015,0.008
			C-4.295,4.441-4.298,4.434-4.298,4.434z"/>
		<path fill="#991210" d="M-8.698,0.084c0-2.402,1.95-4.348,4.349-4.348c0.021,0,0.029,0,0.052,0c0.009,0,0.012,0,0.023,0.002
			c0.112,0.008,0.21,0.086,0.234,0.195c0,0.031,0.003,0.057,0.003,0.082c0.139,2.176,1.866,3.91,4.039,4.059c0,0.004,0,0.01,0,0.01
			c0,0.006,0,0.012,0,0.012c-2.173,0.154-3.9,1.891-4.039,4.057c0,0.014,0.006,0.02,0.006,0.027c0,0.018-0.006,0.035-0.009,0.055
			c-0.024,0.111-0.122,0.188-0.234,0.199c-0.012,0-0.015,0-0.023,0c-0.022,0-0.03,0.008-0.052,0.008
			C-6.748,4.441-8.698,2.488-8.698,0.084z"/>
	</g>
	<path d="M0.951,0c0-0.525-0.43-0.951-0.953-0.951c-0.525,0-0.95,0.426-0.95,0.951c0,0.521,0.425,0.951,0.95,0.951
		C0.521,0.951,0.951,0.521,0.951,0z"/>
</symbol>
<use xlink:href="#AFrica"  width="17.396" height="17.545" x="-8.698" y="-8.771" transform="matrix(0.8077 0 0 -0.8077 7.1182 7.0859)" overflow="visible"/>
</svg>
