<?xml version="1.0" encoding="utf-8"?>
<!-- Generator: Adobe Illustrator 16.0.0, SVG Export Plug-In . SVG Version: 6.00 Build 0)  -->
<!DOCTYPE svg PUBLIC "-//W3C//DTD SVG 1.1//EN" "http://www.w3.org/Graphics/SVG/1.1/DTD/svg11.dtd">
<svg version="1.1" id="Layer_1" xmlns="http://www.w3.org/2000/svg" xmlns:xlink="http://www.w3.org/1999/xlink" x="0px" y="0px"
	 width="14.17px" height="14.17px" viewBox="0 0 14.17 14.17" enable-background="new 0 0 14.17 14.17" xml:space="preserve">
<symbol  id="europe" viewBox="-8.697 -8.772 17.395 17.544">
	<g>
		<path fill="#D58925" d="M4.346,4.265c-0.008,0-0.02,0-0.03,0c0.012,0.027,0.031,0.052,0.032,0.083c0,0,0,0,0,0.001
			c0,0.009,0,0.017,0,0.021c0,0.001,0,0.003,0,0.003v0.001c0,0.019,0,0.026,0,0.048c0,2.405-1.943,4.351-4.345,4.351
			c-2.394,0-4.339-1.935-4.35-4.331c0,0,0,0-0.001,0C-6.747,4.44-8.697,2.489-8.697,0.085c0-2.401,1.95-4.349,4.349-4.349
			c0.005,0,0.009,0,0.013,0C-4.348-4.291-4.367-4.314-4.37-4.348c0-0.006-0.003-0.014-0.003-0.023c0-0.016,0-0.035,0-0.047
			c0-2.402,1.95-4.354,4.353-4.354c2.392,0,4.333,1.943,4.341,4.34c0.008,0,0.018,0,0.024,0c2.407,0,4.352,1.945,4.352,4.349
			C8.697,2.319,6.753,4.265,4.346,4.265z M-4.296,4.435C-4.296,4.435-4.296,4.435-4.296,4.435C-4.297,4.436-4.294,4.44-4.289,4.441
			c0.003,0,0.009-0.007,0.015-0.007C-4.285,4.435-4.288,4.435-4.296,4.435z M4.038,4.067c0-0.025,0-0.058-0.003-0.082
			c-0.115-1.847-1.393-3.37-3.104-3.88c0.004-0.037,0.021-0.068,0.021-0.106c0-0.093-0.028-0.176-0.053-0.26
			c1.712-0.493,2.993-2.003,3.128-3.843C2.161-3.977,0.619-2.668,0.14-0.922C0.092-0.93,0.049-0.949-0.001-0.949
			c-0.064,0-0.12,0.023-0.181,0.035C-0.658-2.658-2.192-3.967-4.059-4.1c0.004,0.012,0.017,0.018,0.02,0.031
			c0,0.033,0.003,0.061,0.003,0.082c0.118,1.854,1.392,3.375,3.105,3.883c-0.004,0.035-0.021,0.066-0.021,0.103
			c0,0.095,0.028,0.181,0.054,0.267c-1.715,0.495-2.99,2.004-3.13,3.836c1.86-0.135,3.394-1.438,3.871-3.182
			c0.053,0.01,0.101,0.032,0.156,0.032c0.057,0,0.107-0.022,0.162-0.033c0.476,1.755,2.024,3.065,3.901,3.188
			C4.056,4.093,4.042,4.083,4.038,4.067z"/>
		<path d="M0.161,0.919C0.106,0.93,0.056,0.952-0.001,0.952c-0.055,0-0.103-0.022-0.156-0.032c-0.357-0.063-0.638-0.313-0.741-0.654
			C-0.923,0.18-0.951,0.094-0.951-0.001c0-0.036,0.017-0.067,0.021-0.103c0.047-0.412,0.348-0.73,0.749-0.811
			c0.061-0.012,0.117-0.035,0.181-0.035c0.05,0,0.093,0.02,0.141,0.027c0.366,0.057,0.657,0.313,0.76,0.661
			c0.024,0.084,0.053,0.167,0.053,0.26c0,0.038-0.018,0.069-0.021,0.106C0.881,0.52,0.568,0.845,0.161,0.919z"/>
	</g>
</symbol>
<use xlink:href="#europe"  width="17.395" height="17.544" id="XMLID_1_" x="-8.697" y="-8.772" transform="matrix(0.8076 0 0 -0.8076 7.1182 7.0845)" overflow="visible"/>
</svg>
