<?xml version="1.0" encoding="utf-8"?>
<!-- Generator: Adobe Illustrator 16.0.0, SVG Export Plug-In . SVG Version: 6.00 Build 0)  -->
<!DOCTYPE svg PUBLIC "-//W3C//DTD SVG 1.1//EN" "http://www.w3.org/Graphics/SVG/1.1/DTD/svg11.dtd">
<svg version="1.1" id="Layer_1" xmlns="http://www.w3.org/2000/svg" xmlns:xlink="http://www.w3.org/1999/xlink" x="0px" y="0px"
	 width="14.17px" height="14.17px" viewBox="0 0 14.17 14.17" enable-background="new 0 0 14.17 14.17" xml:space="preserve">
<symbol  id="europe" viewBox="-8.698 -8.773 17.396 17.545">
	<g>
		<path fill="#C31622" d="M4.346,4.373c0-0.004,0-0.016,0-0.025c0,0.004,0,0.01,0,0.021V4.373z"/>
		<path fill="#D58925" d="M0.002,8.771c-2.401,0-4.352-1.945-4.352-4.35c0-0.021,0-0.029,0-0.049c0-0.004,0-0.016,0-0.025
			c0.011-0.113,0.09-0.209,0.205-0.23c0.025,0,0.049-0.01,0.074-0.01C-1.9,3.971-0.158,2.242-0.01,0.074c0,0,0.008,0,0.012,0
			c0,0,0.007,0,0.013,0c0.142,2.168,1.882,3.896,4.055,4.033c0.011,0,0.017-0.002,0.021-0.002c0.02,0,0.044,0.002,0.059,0.012
			c0.109,0.021,0.195,0.117,0.197,0.23c0,0.01,0,0.021,0,0.025c0,0.02,0,0.027,0,0.049C4.346,6.826,2.404,8.771,0.002,8.771z"/>
	</g>
	<g>
		<path fill="#C31622" d="M-4.374-4.373c0,0.01,0.003,0.018,0.003,0.023c-0.003-0.006-0.003-0.006-0.003-0.014
			C-4.374-4.367-4.374-4.367-4.374-4.373z"/>
		<path fill="#D58925" d="M-0.021-8.773c2.397,0,4.342,1.951,4.342,4.354c0,0.012,0,0.031,0,0.047c0,0.01,0,0.018,0,0.023
			c-0.003,0.121-0.089,0.211-0.196,0.24c-0.026,0-0.051,0-0.08,0.002C1.877-3.971,0.137-2.238-0.01-0.074c-0.008,0-0.011,0-0.011,0
			c-0.006,0-0.012,0-0.015,0c-0.15-2.164-1.887-3.896-4.061-4.033c-0.006,0-0.014,0-0.021,0c-0.018,0-0.04-0.002-0.055-0.002
			C-4.28-4.139-4.359-4.229-4.371-4.35c0-0.006-0.003-0.014-0.003-0.023c0-0.016,0-0.035,0-0.047
			C-4.374-6.822-2.424-8.773-0.021-8.773z"/>
	</g>
	<g>
		<path fill="#C31622" d="M4.303-4.434c-0.011,0-0.021,0-0.031,0c0.008,0,0.01,0,0.016,0C4.292-4.434,4.297-4.434,4.303-4.434z"/>
		<path fill="#D58925" d="M8.697-0.084c0,2.402-1.945,4.348-4.352,4.348c-0.012,0-0.027,0-0.043,0c-0.011,0-0.021,0-0.031,0
			C4.158,4.262,4.064,4.176,4.037,4.066c0-0.025,0-0.057-0.003-0.082C3.899,1.816,2.166,0.078,0.002-0.074
			c0,0-0.004-0.002-0.004-0.01l0.004-0.012C2.166-0.244,3.899-1.98,4.034-4.152c0-0.006-0.006-0.02-0.006-0.023
			c0-0.021,0.009-0.039,0.009-0.053c0.027-0.117,0.121-0.199,0.234-0.205c0.01,0,0.021,0,0.031,0c0.016,0,0.031,0,0.043,0
			C6.752-4.434,8.697-2.488,8.697-0.084z"/>
	</g>
	<g>
		<path fill="#C31622" d="M-4.298,4.434c0.009,0,0.012,0,0.023,0c-0.006,0-0.012,0.006-0.015,0.006
			C-4.295,4.439-4.298,4.434-4.298,4.434z"/>
		<path fill="#D58925" d="M-8.698,0.084c0-2.402,1.95-4.35,4.349-4.35c0.021,0,0.029,0,0.052,0c0.009,0,0.012,0,0.023,0.004
			c0.112,0.006,0.21,0.086,0.234,0.193c0,0.033,0.003,0.059,0.003,0.082c0.139,2.176,1.866,3.912,4.039,4.061c0,0.004,0,0.01,0,0.01
			c0,0.006,0,0.012,0,0.012c-2.173,0.154-3.9,1.889-4.039,4.057c0,0.012,0.006,0.018,0.006,0.025c0,0.018-0.006,0.037-0.009,0.057
			c-0.024,0.111-0.122,0.188-0.234,0.199c-0.012,0-0.015,0-0.023,0c-0.022,0-0.03,0.006-0.052,0.006
			C-6.748,4.439-8.698,2.488-8.698,0.084z"/>
	</g>
	<path d="M0.951-0.002c0-0.525-0.43-0.949-0.953-0.949c-0.525,0-0.95,0.424-0.95,0.949c0,0.521,0.425,0.953,0.95,0.953
		C0.521,0.951,0.951,0.52,0.951-0.002z"/>
</symbol>
<use xlink:href="#europe"  width="17.396" height="17.545" x="-8.698" y="-8.773" transform="matrix(0.8076 0 0 -0.8076 7.1182 7.084)" overflow="visible"/>
</svg>
