<?xml version="1.0" encoding="utf-8"?>
<!-- Generator: Adobe Illustrator 16.0.0, SVG Export Plug-In . SVG Version: 6.00 Build 0)  -->
<!DOCTYPE svg PUBLIC "-//W3C//DTD SVG 1.1//EN" "http://www.w3.org/Graphics/SVG/1.1/DTD/svg11.dtd">
<svg version="1.1" id="Layer_1" xmlns="http://www.w3.org/2000/svg" xmlns:xlink="http://www.w3.org/1999/xlink" x="0px" y="0px"
	 width="14.17px" height="14.17px" viewBox="0 0 14.17 14.17" enable-background="new 0 0 14.17 14.17" xml:space="preserve">
<g>
	<g>
		<path fill="#D58925" d="M12.104,2.077c-1.371-1.371-3.598-1.374-4.97,0C7.121,2.089,7.117,2.094,7.106,2.104
			c-0.003,0.002-0.01,0.009-0.015,0.015C7.033,2.188,7.023,2.29,7.077,2.367C7.091,2.382,7.099,2.4,7.114,2.415
			c1.162,1.318,1.167,3.3,0.015,4.622c0,0,0.005,0.006,0.007,0.007c0,0,0.004,0.005,0.007,0.008c1.319-1.157,3.301-1.15,4.62,0.012
			c0.006,0.006,0.008,0.011,0.01,0.014c0.012,0.011,0.027,0.023,0.041,0.026c0.076,0.05,0.178,0.045,0.244-0.019
			c0.006-0.006,0.014-0.012,0.016-0.015c0.012-0.011,0.016-0.016,0.025-0.027C13.473,5.669,13.475,3.449,12.104,2.077z"/>
		<path fill="#C31622" d="M12.072,7.07c-0.002,0.003-0.01,0.009-0.016,0.015c0.002-0.002,0.006-0.006,0.014-0.012L12.072,7.07z"/>
	</g>
	<g>
		<g>
			<path fill="#D58925" d="M2.07,12.084c1.369,1.371,3.594,1.367,4.966-0.006c0.007-0.008,0.018-0.018,0.026-0.027
				c0.006-0.004,0.01-0.01,0.014-0.014c0.067-0.07,0.069-0.17,0.025-0.248c-0.016-0.016-0.03-0.029-0.046-0.047
				c-1.159-1.316-1.163-3.299-0.012-4.619C7.041,7.118,7.038,7.116,7.038,7.116C7.035,7.112,7.031,7.109,7.031,7.109
				C5.708,8.258,3.727,8.257,2.407,7.093C2.404,7.09,2.399,7.085,2.395,7.079c-0.01-0.01-0.024-0.021-0.032-0.028
				C2.284,7.005,2.187,7.012,2.112,7.074c-0.003,0.003-0.01,0.005-0.016,0.011c-0.009,0.009-0.02,0.02-0.026,0.026
				C0.698,8.485,0.698,10.713,2.07,12.084z"/>
			<path fill="#C31622" d="M2.096,7.085c0.006-0.006,0.013-0.008,0.016-0.011c-0.006,0.001-0.006,0.001-0.01,0.005
				C2.1,7.082,2.1,7.082,2.096,7.085z"/>
		</g>
		<g>
			<path fill="#991210" d="M12.01,12.102c1.373-1.373,1.373-3.595,0-4.969c-0.006-0.007-0.016-0.016-0.027-0.024
				c-0.004-0.007-0.01-0.013-0.018-0.018c-0.064-0.063-0.166-0.068-0.246-0.021c-0.014,0.015-0.031,0.032-0.049,0.045
				c-1.312,1.161-3.297,1.164-4.62,0.015c0,0-0.003-0.001-0.007,0.004L7.038,7.142c1.152,1.321,1.15,3.304-0.013,4.618
				c-0.004,0.004-0.015,0.01-0.017,0.012c-0.013,0.014-0.017,0.029-0.026,0.035C6.931,11.889,6.938,11.99,7,12.057
				c0.005,0.008,0.011,0.012,0.017,0.02c0.01,0.008,0.019,0.018,0.025,0.023C8.416,13.473,10.639,13.473,12.01,12.102z"/>
			<path fill="#C31622" d="M7.017,12.076C7.011,12.068,7.005,12.064,7,12.057c0.003,0.006,0.005,0.008,0.009,0.01
				C7.011,12.068,7.013,12.07,7.017,12.076z"/>
		</g>
		<g>
			<path fill="#991210" d="M2.171,2.07c-1.371,1.371-1.37,3.598,0,4.968C2.184,7.05,2.188,7.055,2.201,7.067
				c0.007,0.006,0.008,0.007,0.017,0.011C2.285,7.14,2.386,7.149,2.461,7.102C2.48,7.083,2.497,7.07,2.51,7.058
				c1.321-1.164,3.3-1.17,4.625-0.014c0.002-0.002,0.006-0.006,0.006-0.006c0.003-0.003,0.007-0.007,0.007-0.007
				C5.995,5.702,6,3.727,7.158,2.41c0.007-0.008,0.014-0.008,0.018-0.013c0.01-0.01,0.018-0.024,0.028-0.038
				c0.049-0.077,0.037-0.176-0.021-0.247C7.175,2.105,7.174,2.104,7.168,2.099C7.157,2.087,7.156,2.078,7.143,2.067
				C5.773,0.696,3.545,0.696,2.171,2.07z"/>
			<path fill="#C31622" d="M7.168,2.099c0.006,0.006,0.007,0.007,0.014,0.014c-0.003-0.003-0.003-0.01-0.003-0.01
				C7.174,2.098,7.168,2.099,7.168,2.099z"/>
		</g>
	</g>
	<g>
		<path fill="#C31622" d="M10.596,3.553c0,0.002,0,0.012,0,0.02c0-0.003,0-0.008,0-0.018V3.553z"/>
		<path fill="#C31622" d="M7.086,0C5.147,0,3.573,1.571,3.573,3.513c0,0.018,0,0.023,0,0.04c0,0.002,0,0.012,0,0.02
			c0.008,0.092,0.072,0.169,0.166,0.187c0.021,0,0.039,0.008,0.06,0.008c1.753,0.109,3.159,1.507,3.279,3.258c0,0,0.007,0,0.009,0
			c0,0,0.006,0,0.01,0c0.116-1.751,1.521-3.148,3.277-3.258c0.008,0,0.012,0.001,0.018,0.001c0.014,0,0.033-0.001,0.047-0.009
			c0.088-0.018,0.156-0.095,0.158-0.187c0-0.008,0-0.018,0-0.02c0-0.017,0-0.022,0-0.04C10.596,1.571,9.027,0,7.086,0z"/>
	</g>
	<g>
		<path fill="#C31622" d="M3.553,10.615c0-0.006,0.002-0.014,0.002-0.018c-0.002,0.004-0.002,0.004-0.002,0.012
			C3.553,10.611,3.553,10.611,3.553,10.615z"/>
		<path fill="#C31622" d="M7.069,14.17c1.937,0,3.505-1.576,3.505-3.516c0-0.01,0-0.025,0-0.039c0-0.006,0-0.014,0-0.018
			c0-0.098-0.07-0.172-0.158-0.195c-0.021,0-0.039,0-0.064,0c-1.75-0.111-3.156-1.512-3.274-3.259c-0.006,0-0.009,0-0.009,0
			c-0.004,0-0.01,0-0.01,0c-0.123,1.747-1.525,3.147-3.281,3.259c-0.004,0-0.011,0-0.018,0c-0.014,0-0.033,0-0.044,0
			c-0.088,0.023-0.151,0.098-0.161,0.195c0,0.004-0.002,0.012-0.002,0.018c0,0.014,0,0.029,0,0.039
			C3.553,12.594,5.127,14.17,7.069,14.17z"/>
	</g>
	<g>
		<path fill="#C31622" d="M10.561,10.664c-0.008,0-0.018,0-0.023,0c0.004,0,0.006,0,0.01,0
			C10.553,10.664,10.557,10.664,10.561,10.664z"/>
		<path fill="#C31622" d="M14.109,7.151c0-1.94-1.572-3.512-3.514-3.512c-0.01,0-0.021,0-0.035,0c-0.008,0-0.018,0-0.023,0
			c-0.094,0.003-0.17,0.071-0.191,0.16c0,0.021,0,0.046-0.002,0.066c-0.109,1.751-1.51,3.154-3.257,3.277
			c0,0-0.002,0.001-0.002,0.008l0.002,0.01c1.748,0.12,3.148,1.524,3.257,3.276c0,0.004-0.004,0.016-0.004,0.02
			c0,0.016,0.006,0.031,0.006,0.043c0.021,0.096,0.098,0.16,0.191,0.164c0.006,0,0.016,0,0.023,0c0.014,0,0.025,0,0.035,0
			C12.537,10.664,14.109,9.094,14.109,7.151z"/>
	</g>
	<g>
		<path fill="#C31622" d="M3.614,3.504c0.008,0,0.011,0,0.02,0c-0.005,0-0.009-0.006-0.012-0.006
			C3.618,3.498,3.614,3.504,3.614,3.504z"/>
		<path fill="#C31622" d="M0.06,7.017c0,1.94,1.575,3.513,3.513,3.513c0.017,0,0.023,0,0.041,0c0.008,0,0.011,0,0.02-0.002
			c0.092-0.006,0.169-0.07,0.189-0.156c0-0.029,0.003-0.049,0.003-0.066c0.112-1.758,1.506-3.161,3.261-3.28
			c0-0.004,0-0.008,0-0.008c0-0.005,0-0.011,0-0.011C5.332,6.882,3.938,5.48,3.826,3.729c0-0.009,0.005-0.014,0.005-0.02
			c0-0.015-0.005-0.03-0.008-0.046c-0.021-0.091-0.098-0.151-0.189-0.16c-0.009,0-0.012,0-0.02,0c-0.018,0-0.024-0.006-0.041-0.006
			C1.635,3.498,0.06,5.074,0.06,7.017z"/>
	</g>
	<circle cx="7.085" cy="7.085" r="0.768"/>
	<path d="M7.633,7.63C7.334,7.931,6.847,7.927,6.547,7.629c-0.3-0.301-0.301-0.786-0.001-1.087c0.299-0.297,0.788-0.3,1.088-0.001
		C7.933,6.841,7.932,7.332,7.633,7.63z"/>
</g>
</svg>
