<?xml version="1.0" encoding="utf-8"?>
<!-- Generator: Adobe Illustrator 16.0.0, SVG Export Plug-In . SVG Version: 6.00 Build 0)  -->
<!DOCTYPE svg PUBLIC "-//W3C//DTD SVG 1.1//EN" "http://www.w3.org/Graphics/SVG/1.1/DTD/svg11.dtd">
<svg version="1.1" id="Layer_1" xmlns="http://www.w3.org/2000/svg" xmlns:xlink="http://www.w3.org/1999/xlink" x="0px" y="0px"
	 width="14.17px" height="14.17px" viewBox="0 0 14.17 14.17" enable-background="new 0 0 14.17 14.17" xml:space="preserve">
<symbol  id="North_america" viewBox="-8.697 -8.771 17.396 17.545">
	<g>
		<path fill="#A20087" d="M4.348,4.373c0-0.004,0-0.014,0-0.023c0,0.004,0,0.01,0,0.02V4.373z"/>
		<path fill="#A20087" d="M0.003,8.773c-2.401,0-4.351-1.945-4.351-4.352c0-0.02,0-0.027,0-0.049c0-0.004,0-0.014,0-0.023
			c0.01-0.115,0.09-0.211,0.205-0.232c0.025,0,0.049-0.008,0.073-0.008c2.171-0.137,3.913-1.865,4.061-4.035c0,0,0.009,0,0.012,0
			c0,0,0.007,0,0.013,0c0.143,2.17,1.883,3.898,4.055,4.035c0.011,0,0.017-0.002,0.021-0.002c0.019,0,0.043,0.002,0.059,0.01
			C4.26,4.139,4.345,4.234,4.348,4.35c0,0.01,0,0.02,0,0.023c0,0.021,0,0.029,0,0.049C4.348,6.828,2.405,8.773,0.003,8.773z"/>
	</g>
	<g>
		<path fill="#A20087" d="M-4.373-4.373c0,0.01,0.004,0.018,0.004,0.025c-0.004-0.006-0.004-0.008-0.004-0.016
			C-4.373-4.367-4.373-4.367-4.373-4.373z"/>
		<path fill="#A20087" d="M-0.02-8.771c2.398,0,4.342,1.951,4.342,4.354c0,0.01,0,0.031,0,0.045c0,0.01,0,0.018,0,0.025
			C4.32-4.229,4.233-4.139,4.127-4.109c-0.027,0-0.052,0-0.081,0.004C1.878-3.971,0.138-2.236-0.009-0.074c-0.007,0-0.011,0-0.011,0
			c-0.006,0-0.012,0-0.014,0C-0.185-2.236-1.92-3.971-4.094-4.105c-0.006,0-0.014,0-0.022,0c-0.018,0-0.04-0.004-0.054-0.004
			c-0.109-0.029-0.188-0.119-0.199-0.238c0-0.008-0.004-0.016-0.004-0.025c0-0.014,0-0.035,0-0.045
			C-4.373-6.82-2.423-8.771-0.02-8.771z"/>
	</g>
	<g>
		<path fill="#A20087" d="M4.304-4.434c-0.011,0-0.021,0-0.03,0c0.007,0,0.01,0,0.016,0C4.293-4.434,4.298-4.434,4.304-4.434z"/>
		<path fill="#A20087" d="M8.698-0.084c0,2.402-1.945,4.35-4.351,4.35c-0.012,0-0.027,0-0.044,0c-0.011,0-0.021,0-0.03,0
			C4.16,4.262,4.066,4.176,4.039,4.068c0-0.027,0-0.059-0.004-0.082C3.9,1.818,2.168,0.078,0.003-0.074c0,0-0.003,0-0.003-0.01
			l0.003-0.012C2.168-0.244,3.9-1.979,4.035-4.152c0-0.006-0.006-0.018-0.006-0.023c0-0.02,0.01-0.039,0.01-0.053
			C4.066-4.346,4.16-4.428,4.273-4.434c0.01,0,0.02,0,0.03,0c0.017,0,0.032,0,0.044,0C6.753-4.434,8.698-2.488,8.698-0.084z"/>
	</g>
	<g>
		<path fill="#A20087" d="M-4.297,4.434c0.01,0,0.012,0,0.023,0c-0.006,0-0.012,0.008-0.014,0.008
			C-4.293,4.441-4.297,4.434-4.297,4.434z"/>
		<path fill="#A20087" d="M-8.697,0.084c0-2.402,1.95-4.348,4.35-4.348c0.021,0,0.029,0,0.051,0c0.01,0,0.012,0,0.023,0.002
			c0.113,0.008,0.21,0.086,0.234,0.195c0,0.031,0.004,0.057,0.004,0.082c0.139,2.176,1.865,3.91,4.038,4.059c0,0.004,0,0.01,0,0.01
			c0,0.006,0,0.012,0,0.012C-2.17,0.25-3.896,1.986-4.035,4.152c0,0.014,0.006,0.02,0.006,0.027c0,0.018-0.006,0.035-0.01,0.055
			C-4.063,4.346-4.16,4.422-4.273,4.434c-0.012,0-0.014,0-0.023,0c-0.021,0-0.03,0.008-0.051,0.008
			C-6.747,4.441-8.697,2.488-8.697,0.084z"/>
	</g>
	<path d="M0.952,0c0-0.525-0.429-0.951-0.952-0.951c-0.525,0-0.951,0.426-0.951,0.951c0,0.521,0.426,0.951,0.951,0.951
		C0.523,0.951,0.952,0.521,0.952,0z"/>
</symbol>
<use xlink:href="#North_america"  width="17.396" height="17.545" x="-8.697" y="-8.771" transform="matrix(0.8076 0 0 -0.8076 7.1172 7.0859)" overflow="visible"/>
</svg>
